<svg xmlns="http://www.w3.org/2000/svg" xmlns:xlink="http://www.w3.org/1999/xlink" xmlns:lucid="lucid" width="1667.3" height="949.67"><g transform="translate(-80 -250)" lucid:page-tab-id="0_0"><path d="M130.06 680h120v120h-120V680z" stroke="#fff" stroke-opacity="0" stroke-width="2" fill="#3f8624"/><path d="M228.35 744.06c-.46-2.48-3.3-4.25-5.3-5.53-.6-.4-2.3-1.04-2.45-1.6 0-.4 0-.8.16-1.2l1.6-11.46 1.4-10.17c.37-3.05-1.1-5.13-3.62-6.9-5.13-3.6-11.88-5.04-17.94-6-7.97-1.28-14.95-1.52-23-.72-7.28.48-13.34 1.92-20.1 4.8-3.36 1.6-7.88 4.1-7.27 8.42 1.53 12.97 3.45 25.95 5.2 38.93.78 5.93 1.62 11.86 2.4 17.8.3 2.47 1.68 4.4 3.98 5.35 4.9 2.65 11.05 3.45 16.64 3.93 7.75.73 14.34.5 22-.95 4.6-.8 13.2-2.25 13.96-8 .92-7.14 1.92-14.27 2.84-21.4l.38-2.17c2.6.64 10.05 2 9.13-3.12zM187.7 703.2c9.67 0 20.63 1.12 29.22 5.85 1.38.72 4.45 2.32 3.53 4.33-.92 1.92-3.83 2.88-5.6 3.6-2.6.96-4.98 1.6-7.74 2.16-11.95 2.4-22.53 2.65-34.65.73-5.44-.57-9.96-1.93-14.87-4.33-1.15-.72-3.07-1.84-2.53-3.45.38-.9 1-1.53 1.84-2 3.75-2.4 7.2-3.85 11.57-4.66 6.6-1.6 12.42-2.32 19.24-2.24zm25.16 67.46c-.3 1.84-3.38 2.8-4.83 3.28-3.22 1.12-6.06 1.76-9.43 2.16-7.44.97-13.88.97-21.4 0-4.67-.4-8.58-1.44-12.8-3.52-1.15-.48-1.84-1.52-1.9-2.72-1.62-12.74-3.4-25.4-5.15-38.06l-1.84-13.78c3.84 2.1 7.37 3.37 11.66 4.1 4.68.95 8.6 1.43 13.34 1.75 9.2.64 17.1.24 26.22-1.44 4.84-.72 8.82-2.08 13.12-4.4l-3.38 25.07c-8.6-2.8-15.64-5.6-23.7-9.54-.37-.16-.68-.32-1-.48-.45-.32-.3-.16-.52-.64-.4-.96-.46-1.6-1.3-2.4-.77-.56-1.62-.8-2.54-.72-2 .08-3.52 1.84-3.37 3.84.15 1.93 1.92 3.45 3.9 3.3.55-.1 1-.25 1.62-.5.6-.15.6-.15 1.23.17 8.2 4 15.33 6.97 24 9.85 1.22.4 1.22 0 1.22 1.04-.07.8-.15 1.53-.3 2.33l-1 7.6zm-24.7-37.9c0 .48-.6.4-.76.16-.23-.32.77-.72.77-.16zm31.52 11.22l.46-3.53c1.6.97 4.3 2.33 5.06 4.1-1.6.63-4.06-.17-5.52-.57z" stroke="#fff" stroke-opacity="0" stroke-width="2" fill="#fff"/><use xlink:href="#a" transform="matrix(1,0,0,1,100.05714285714285,809) translate(2.65432098765433 17.77777777777778)"/><use xlink:href="#b" transform="matrix(1,0,0,1,100.05714285714285,809) translate(35.987654320987666 17.77777777777778)"/><use xlink:href="#c" transform="matrix(1,0,0,1,100.05714285714285,809) translate(97.65432098765433 17.77777777777778)"/><path d="M130.06 280h120v120h-120V280z" stroke="#fff" stroke-opacity="0" fill="#d6242d"/><path d="M207.67 378.42c-.36 0-.65-.15-.94-.3-.43-.3-.67-.78-.67-1.3v-73.63c0-.55.3-1.1.77-1.4.48-.3 1.08-.3 1.6-.07l20.8 10.22c.56.23.9.77.9 1.38v56.56c.02.76-.42 1.37-1.1 1.6l-20.8 6.92h-.56zm1.6-72.62v68.78l17.6-5.84v-54.4zM172.45 378.42h-.5l-20.8-6.92c-.7-.23-1.12-.92-1.1-1.6v-56.57c0-.6.34-1.15.9-1.38l20.8-10.22c.53-.23 1.1-.23 1.6.08.5.3.76.85.76 1.4v73.6c0 .54-.24 1-.67 1.3-.3.24-.6.32-.98.32zm-19.2-9.6l17.6 5.83V305.8l-17.6 8.6z" stroke="#fff" stroke-opacity="0" fill="#fff"/><path d="M206.06 324h-4.8v-3.2h4.8zm-9.6 0h-4.82v-3.2h4.8zm-9.6 0h-4.8v-3.2h4.8zm-9.6 0h-4.8v-3.2h4.8zM206.06 359.2h-4.8V356h4.8zm-9.6 0h-4.82V356h4.8zm-9.6 0h-4.8V356h4.8zm-9.6 0h-4.8V356h4.8zM183.03 345.5l-6-5.13c-.7-.57-.76-1.6-.2-2.26l.2-.17 5.98-5.13 2.1 2.43-4.58 3.97 4.58 3.92zM197.1 345.5l-2.08-2.42 4.57-3.88-4.6-3.9 2.08-2.5 6 5.12c.7.57.77 1.6.2 2.26-.06.06-.12.12-.2.17z" stroke="#fff" stroke-opacity="0" fill="#fff"/><path d="M185.35 348.87l6.36-18.8 3.04 1.03-6.36 18.8-3.03-1.03z" stroke="#fff" stroke-opacity="0" stroke-width=".32" fill="#fff"/><use xlink:href="#d" transform="matrix(1,0,0,1,100.05714285714285,409) translate(25.21604938271605 17.777777777777775)"/><use xlink:href="#e" transform="matrix(1,0,0,1,100.05714285714285,409) translate(67.19135802469135 17.777777777777775)"/><path d="M500 280h120v120H500V280z" stroke="#fff" stroke-opacity="0" stroke-width="2" fill="#d86613"/><path d="M596.8 380h-19.72c-.64 0-1.15-.32-1.4-.88l-27.92-58.32h-11.78c-.9 0-1.6-.72-1.6-1.6v-17.6c0-.88.7-1.6 1.6-1.6h24.65c.64 0 1.15.32 1.4.88l27.8 58.32h6.97c.9 0 1.6.72 1.6 1.6v17.6c0 .88-.7 1.6-1.6 1.6zm-18.7-3.2h17.1v-14.4h-6.4c-.64 0-1.15-.32-1.4-.88l-27.8-58.32H537.6v14.4h11.2c.65 0 1.16.32 1.48.88z" stroke="#fff" stroke-opacity="0" stroke-width="2" fill="#fff"/><path d="M543.96 380h-20.8c-.55 0-1.05-.3-1.37-.73-.33-.54-.33-1.12-.08-1.6l21.78-45.46c.24-.58.8-.92 1.4-.92.65 0 1.18.34 1.46.88l10.4 21.43c.26.43.26.92 0 1.4L545.42 379c-.2.63-.77 1.02-1.44 1.02zm-18.24-3.22h17.24l10.6-22.36-8.6-17.88z" stroke="#fff" stroke-opacity="0" stroke-width="2" fill="#fff"/><use xlink:href="#f" transform="matrix(1,0,0,1,470,409) translate(20.895061728395078 17.777777777777775)"/><use xlink:href="#g" transform="matrix(1,0,0,1,470,409) translate(107.25308641975307 17.777777777777775)"/><use xlink:href="#h" transform="matrix(1,0,0,1,470,409) translate(19.629629629629648 44.44444444444444)"/><use xlink:href="#i" transform="matrix(1,0,0,1,470,409) translate(69.01234567901236 44.44444444444444)"/><use xlink:href="#j" transform="matrix(1,0,0,1,470,409) translate(93.70370370370371 44.44444444444444)"/><path d="M860 308.88v56.28L909.5 390l49.5-24.84v-14.04l-42.08-5.28v-31.68l42.08-5.28v-14.04L909.5 270 860 294.84v14.04z" fill="#876929"/><path d="M860.02 351.08l49.47 14.9v24L860 365.2v-14.1z" fill="#876929"/><path d="M866.3 368.32l-6.3-3.15V294.8l6.33-3.13-.02 76.65z" fill="#876929"/><path d="M916.92 345.85l-50.6 7.13V307l50.6 7.17v31.68zM959 308.92l-49.5-14.95V270l49.5 24.87v14.05zM958.97 351.1L909.5 366v24l49.47-24.86V351.1z" fill="#d9a741"/><path d="M891.26 342.86l18.23 2.28V314.7l-18.24 2.32v25.84zM872.9 340.6l11.83 1.46v-24.18l-11.83 1.5v21.2z" fill="#876929"/><path d="M866.33 307l43.18-13 49.5 14.9-42.08 5.25-50.6-7.16z" fill="#624a1e"/><path d="M866.3 352.98L909.5 366l49.48-14.9-42.06-5.26-50.6 7.14z" fill="#fad791"/><path d="M958.97 338.88l-49.47 6.26V314.7l49.47 6.34v17.84z" fill="#d9a741"/><use xlink:href="#k" transform="matrix(1,0,0,1,860,390) translate(26.043209876543216 17.777777777777775)"/><path d="M1180 280h120v120h-120V280z" stroke="#fff" stroke-opacity="0" stroke-width="2" fill="#d86613"/><path d="M1276.8 380h-19.72c-.64 0-1.15-.32-1.4-.88l-27.92-58.32h-11.78c-.9 0-1.6-.72-1.6-1.6v-17.6c0-.88.7-1.6 1.6-1.6h24.65c.64 0 1.15.32 1.4.88l27.8 58.32h6.97c.9 0 1.6.72 1.6 1.6v17.6c0 .88-.7 1.6-1.6 1.6zm-18.7-3.2h17.1v-14.4h-6.4c-.64 0-1.15-.32-1.4-.88l-27.8-58.32h-22.02v14.4h11.2c.65 0 1.16.32 1.48.88z" stroke="#fff" stroke-opacity="0" stroke-width="2" fill="#fff"/><path d="M1223.96 380h-20.8c-.55 0-1.05-.3-1.37-.73-.33-.54-.33-1.12-.08-1.6l21.78-45.46c.24-.58.8-.92 1.4-.92.65 0 1.18.34 1.46.88l10.4 21.43c.26.43.26.92 0 1.4L1225.42 379c-.2.63-.77 1.02-1.44 1.02zm-18.24-3.22h17.24l10.6-22.36-8.6-17.88z" stroke="#fff" stroke-opacity="0" stroke-width="2" fill="#fff"/><use xlink:href="#f" transform="matrix(1,0,0,1,1150,409) translate(25.216049382716065 17.777777777777775)"/><use xlink:href="#l" transform="matrix(1,0,0,1,1150,409) translate(111.57407407407406 17.777777777777775)"/><use xlink:href="#m" transform="matrix(1,0,0,1,1150,409) translate(53.02469135802469 44.44444444444444)"/><path d="M1580 280h120v120h-120V280z" stroke="#fff" stroke-opacity="0" stroke-width="2" fill="#3b48cc"/><path d="M1660.4 344.78l-10.6 10.55c2-.56 3.65-1.2 5.5-2.24 1.1.63 1.68 1.67 1.9 2.87 0 2.96-6.2 6.16-15.4 7.44-3.05.4-5.55.56-8.6.56h-1.58c-12.95-.24-22.42-4.3-22.42-8 .17-1.2.82-2.15 1.9-2.87 5 2.8 13.18 4.47 22.1 4.47h.17l.92-3.2h-1.1c-8.8 0-16.98-1.76-21.28-4.47-1.74-1.12-2.72-2.4-2.72-3.44v-7.44c4.9 3.76 14.64 5.68 24 5.68 1.25 0 2.5 0 3.76-.08l.92-3.2c-1.63.08-3.1.16-4.68.16-13.7 0-24-4.23-24-8 .17-1.27.82-2.23 1.9-2.87 4.42 2.5 11.22 4 18.9 4.4l.1-3.2c-7.56-.4-14.42-2-18.18-4.47-1.74-1.04-2.66-2.3-2.72-3.43v-7.36c4.9 3.76 14.64 5.68 24 5.68h.33l1.74-3.2h-2.07c-13.7 0-24-4.16-24-8 0-3.75 10.3-8 24-8 4.85 0 8.98.5 13.72 1.6h8.8c-4.83-2.95-13.1-4.78-22.52-4.78-13.17 0-27.2 3.9-27.2 11.2V324c.1 1.92.92 3.5 2.44 4.7-1.52 1.3-2.34 2.9-2.45 4.8v12.8c.1 2 .92 3.6 2.44 4.87-1.52 1.2-2.34 2.8-2.45 4.8V369.07c.43 7.05 14.2 10.8 27.2 10.8s26.78-3.75 27.2-10.87V355.88c-.04-1.9-.9-3.6-2.44-4.78 1.53-1.2 2.34-2.88 2.45-4.8zm-3.2 23.98c0 3.76-10.28 8-24 8-13.7 0-24-4.16-24-8v-7.35c4.9 3.68 14.64 5.68 24 5.68s19.1-2 24-5.67z" stroke="#fff" stroke-opacity="0" stroke-width="2" fill="#fff"/><path d="M1616 324.03c0 1.1-.9 2-2 2s-2-.9-2-2 .9-2 2-2 2 .9 2 2zM1616 346.43c0 1.1-.9 2-2 2s-2-.9-2-2 .9-2 2-2 2 .9 2 2zM1616 368.83c0 1.1-.9 2-2 2s-2-.9-2-2 .9-2 2-2 2 .9 2 2zM1637.2 362.37c-.3 0-.53-.06-.8-.22-.66-.38-.94-1.14-.74-1.85l8.98-29.95h-9.06c-.88.06-1.6-.65-1.6-1.58 0-.27.04-.54.2-.76l9.58-19.2c.28-.56.8-.88 1.45-.88h20.8c.9-.06 1.62.65 1.66 1.52.04.22 0 .38-.04.6l-4.13 12.25h8.97c.88.05 1.6.76 1.6 1.63 0 .43-.16.76-.44 1.1l-35.2 36.8c-.32.37-.72.54-1.24.54zm1-35.18h8.6c.53 0 .97.2 1.3.6.27.43.4.92.23 1.4l-7.7 25.6 28.03-29.24h-7.46c-.88 0-1.64-.65-1.68-1.52 0-.22 0-.44.08-.6l4.1-12.3h-17.6z" stroke="#fff" stroke-opacity="0" stroke-width="2" fill="#fff"/><use xlink:href="#n" transform="matrix(1,0,0,1,1550,409) translate(3.734567901234584 17.777777777777775)"/><use xlink:href="#o" transform="matrix(1,0,0,1,1550,409) translate(123.30246913580245 17.777777777777775)"/><path d="M1580 1000h120v120h-120v-120z" stroke="#fff" stroke-opacity="0" stroke-width="2" fill="#3b48cc"/><path d="M1660.4 1064.78l-10.6 10.55c2-.56 3.65-1.2 5.5-2.24 1.1.63 1.68 1.67 1.9 2.87 0 2.96-6.2 6.16-15.4 7.44-3.05.4-5.55.56-8.6.56h-1.58c-12.95-.24-22.42-4.3-22.42-8 .17-1.2.82-2.15 1.9-2.87 5 2.8 13.18 4.47 22.1 4.47h.17l.92-3.2h-1.1c-8.8 0-16.98-1.76-21.28-4.47-1.74-1.12-2.72-2.4-2.72-3.44v-7.44c4.9 3.76 14.64 5.68 24 5.68 1.25 0 2.5 0 3.76-.08l.92-3.2c-1.63.08-3.1.16-4.68.16-13.7 0-24-4.23-24-8 .17-1.27.82-2.23 1.9-2.87 4.42 2.5 11.22 4 18.9 4.4l.1-3.2c-7.56-.4-14.42-2-18.18-4.47-1.74-1.04-2.66-2.3-2.72-3.43v-7.36c4.9 3.76 14.64 5.68 24 5.68h.33l1.74-3.2h-2.07c-13.7 0-24-4.16-24-8 0-3.75 10.3-8 24-8 4.85 0 8.98.5 13.72 1.6h8.8c-4.83-2.95-13.1-4.78-22.52-4.78-13.17 0-27.2 3.9-27.2 11.2V1044c.1 1.92.92 3.5 2.44 4.7-1.52 1.3-2.34 2.9-2.45 4.8v12.8c.1 2 .92 3.6 2.44 4.87-1.52 1.2-2.34 2.8-2.45 4.8V1089.07c.43 7.05 14.2 10.8 27.2 10.8s26.78-3.75 27.2-10.87V1075.88c-.04-1.9-.9-3.6-2.44-4.78 1.53-1.2 2.34-2.88 2.45-4.8zm-3.2 23.98c0 3.76-10.28 8-24 8-13.7 0-24-4.16-24-8v-7.35c4.9 3.68 14.64 5.68 24 5.68s19.1-2 24-5.67z" stroke="#fff" stroke-opacity="0" stroke-width="2" fill="#fff"/><path d="M1616 1044.03c0 1.1-.9 2-2 2s-2-.9-2-2 .9-2 2-2 2 .9 2 2zM1616 1066.43c0 1.1-.9 2-2 2s-2-.9-2-2 .9-2 2-2 2 .9 2 2zM1616 1088.83c0 1.1-.9 2-2 2s-2-.9-2-2 .9-2 2-2 2 .9 2 2zM1637.2 1082.37c-.3 0-.53-.06-.8-.22-.66-.38-.94-1.14-.74-1.85l8.98-29.95h-9.06c-.88.06-1.6-.65-1.6-1.58 0-.27.04-.54.2-.76l9.58-19.2c.28-.56.8-.88 1.45-.88h20.8c.9-.06 1.62.65 1.66 1.52.04.22 0 .38-.04.6l-4.13 12.25h8.97c.88.05 1.6.76 1.6 1.63 0 .43-.16.76-.44 1.1l-35.2 36.8c-.32.37-.72.54-1.24.54zm1-35.18h8.6c.53 0 .97.2 1.3.6.27.43.4.92.23 1.4l-7.7 25.6 28.03-29.24h-7.46c-.88 0-1.64-.65-1.68-1.52 0-.22 0-.44.08-.6l4.1-12.3h-17.6z" stroke="#fff" stroke-opacity="0" stroke-width="2" fill="#fff"/><use xlink:href="#p" transform="matrix(1,0,0,1,1550,1129) translate(33.30246913580248 17.777777777777775)"/><use xlink:href="#q" transform="matrix(1,0,0,1,1550,1129) translate(54.25925925925927 44.44444444444444)"/><path d="M1300 1000h120v120h-120v-120z" stroke="#fff" stroke-opacity="0" stroke-width="2" fill="#d86613"/><path d="M1396.8 1100h-19.72c-.64 0-1.15-.32-1.4-.88l-27.92-58.32h-11.78c-.9 0-1.6-.72-1.6-1.6v-17.6c0-.88.7-1.6 1.6-1.6h24.65c.64 0 1.15.32 1.4.88l27.8 58.32h6.97c.9 0 1.6.72 1.6 1.6v17.6c0 .88-.7 1.6-1.6 1.6zm-18.7-3.2h17.1v-14.4h-6.4c-.64 0-1.15-.32-1.4-.88l-27.8-58.32h-22.02v14.4h11.2c.65 0 1.16.32 1.48.88z" stroke="#fff" stroke-opacity="0" stroke-width="2" fill="#fff"/><path d="M1343.96 1100h-20.8c-.55 0-1.05-.3-1.37-.73-.33-.54-.33-1.12-.08-1.6l21.78-45.46c.24-.58.8-.92 1.4-.92.65 0 1.18.34 1.46.88l10.4 21.43c.26.43.26.92 0 1.4l-11.35 23.98c-.2.63-.77 1.02-1.44 1.02zm-18.24-3.22h17.24l10.6-22.36-8.6-17.88z" stroke="#fff" stroke-opacity="0" stroke-width="2" fill="#fff"/><use xlink:href="#f" transform="matrix(1,0,0,1,1270,1129) translate(1.7901234567901412 17.777777777777775)"/><use xlink:href="#h" transform="matrix(1,0,0,1,1270,1129) translate(88.14814814814814 17.777777777777775)"/><use xlink:href="#r" transform="matrix(1,0,0,1,1270,1129) translate(137.53086419753083 17.777777777777775)"/><use xlink:href="#s" transform="matrix(1,0,0,1,1270,1129) translate(14.197530864197546 44.44444444444444)"/><use xlink:href="#m" transform="matrix(1,0,0,1,1270,1129) translate(91.85185185185185 44.44444444444444)"/><path d="M980 1000h120v120H980v-120z" stroke="#fff" stroke-opacity="0" stroke-width="2" fill="#3f8624"/><path d="M1078.3 1064.06c-.47-2.48-3.3-4.25-5.3-5.53-.62-.4-2.3-1.04-2.46-1.6 0-.4 0-.8.16-1.2l1.6-11.46 1.4-10.17c.37-3.05-1.1-5.13-3.62-6.9-5.13-3.6-11.88-5.04-17.94-6-7.97-1.28-14.95-1.52-23-.72-7.28.48-13.34 1.92-20.08 4.8-3.38 1.6-7.9 4.1-7.3 8.42 1.55 12.97 3.46 25.95 5.23 38.93.75 5.93 1.6 11.86 2.36 17.8.3 2.47 1.7 4.4 4 5.35 4.9 2.65 11.03 3.45 16.63 3.93 7.73.73 14.32.5 22-.95 4.6-.8 13.18-2.25 13.94-8 .92-7.14 1.92-14.27 2.84-21.4l.38-2.17c2.6.64 10.05 2 9.13-3.12zm-40.65-40.86c9.66 0 20.63 1.12 29.2 5.85 1.4.72 4.46 2.32 3.54 4.33-.93 1.92-3.84 2.88-5.6 3.6-2.6.96-5 1.6-7.75 2.16-11.96 2.4-22.54 2.65-34.65.73-5.45-.57-9.97-1.93-14.88-4.33-1.15-.72-3.06-1.84-2.53-3.45.38-.9 1-1.53 1.83-2 3.76-2.4 7.2-3.85 11.58-4.66 6.6-1.6 12.43-2.32 19.25-2.24zm25.15 67.46c-.3 1.84-3.37 2.8-4.83 3.28-3.22 1.12-6.06 1.76-9.43 2.16-7.44.97-13.88.97-21.4 0-4.67-.4-8.58-1.44-12.8-3.52-1.14-.48-1.83-1.52-1.9-2.72-1.62-12.74-3.38-25.4-5.15-38.06l-1.85-13.78c3.84 2.1 7.36 3.37 11.66 4.1 4.68.95 8.6 1.43 13.35 1.75 9.2.64 17.1.24 26.22-1.44 4.83-.72 8.8-2.08 13.1-4.4l-3.37 25.07c-8.58-2.8-15.64-5.6-23.7-9.54-.37-.16-.68-.32-.98-.48-.46-.32-.3-.16-.54-.64-.38-.96-.46-1.6-1.3-2.4-.77-.56-1.6-.8-2.53-.72-2 .08-3.53 1.84-3.38 3.84.16 1.93 1.92 3.45 3.9 3.3.55-.1 1-.25 1.62-.5.6-.15.6-.15 1.22.17 8.2 4 15.33 6.97 24 9.85 1.22.4 1.22 0 1.22 1.04-.07.8-.15 1.53-.3 2.33l-1 7.6zm-24.7-37.9c0 .48-.6.4-.75.16-.23-.32.76-.72.76-.16zm31.52 11.22l.46-3.53c1.6.97 4.3 2.33 5.06 4.1-1.6.63-4.06-.17-5.52-.57z" stroke="#fff" stroke-opacity="0" stroke-width="2" fill="#fff"/><use xlink:href="#a" transform="matrix(1,0,0,1,950,1129) translate(22.74691358024691 17.77777777777778)"/><use xlink:href="#t" transform="matrix(1,0,0,1,950,1129) translate(56.08024691358025 17.77777777777778)"/><use xlink:href="#u" transform="matrix(1,0,0,1,950,1129) translate(109.10493827160494 17.77777777777778)"/><path d="M700 1000h120v120H700v-120z" stroke="#fff" stroke-opacity="0" stroke-width="2" fill="#693cc5"/><path d="M797.77 1087.05l-7.28-7.36c4.4-6.57 6.4-13.37 6.4-21.3 0-21.2-17.13-38.4-38.34-38.4-15.12.08-28 8.16-34.56 21.84l2.88 1.37c8.4-17.52 29.44-24.88 46.97-16.48 12.48 6 19.92 17.77 19.92 31.7.08 7.03-1.68 13.03-5.52 18.95l-6.08-6.08c.4-.8.72-1.53 1.04-2.4 5.13-13.6-1.83-28.82-15.43-33.94-13.7-5.12-28.9 1.76-34 15.45H723.2v3.2h9.68c-.4 1.7-.56 3.13-.56 4.8H720v3.2h12.4c.16 1.7.4 3.13.88 4.8h-9.92v3.2h11.04c.4.9.8 1.6 1.28 2.5 7.04 12.7 23.12 17.2 35.85 10.15l5.84 5.85c-16.16 10.24-37.53 5.68-48.17-10.25l-2.64 1.76c11.76 17.62 35.45 22.42 53.13 10.82l7.35 7.36c2.96 2.96 7.76 2.96 10.72 0 2.96-2.96 2.96-7.76 0-10.73zm-39.13-4.72c-12.8 0-23.2-10.32-23.2-23.12s10.4-23.2 23.2-23.2c12.8 0 23.2 10.4 23.2 23.2 0 12.8-10.4 23.13-23.2 23.13zm36.8 13.2c-1.75 1.6-4.47 1.6-6.15 0l-15.05-15.12c2.48-1.83 4.32-3.75 6.08-6.4l15.12 15.22c1.76 1.76 1.76 4.48.08 6.16-.08 0-.08 0-.08.08z" stroke="#fff" stroke-opacity="0" stroke-width="2" fill="#fff"/><path d="M773.4 1061.52c-.7-1.5-1.66-2.63-3-3.6l1.05-7.78V1049.72v-.24c0-3.8-8.36-5.2-13.62-5.2s-13.6 1.4-13.6 5.2v.66l2.7 19.9c.2 4 9.76 4.1 10.87 4.1 2.2 0 4.03-.17 6.17-.62.7-.18 1.3-.36 2-.63 1.74-.7 2.65-1.6 2.7-2.85l.82-6.2c.55.1 1.05.17 1.6.17.85.12 1.64-.27 2.05-.98.32-.48.4-1 .26-1.52zm-6.48-1.83c-2.05-.8-4.53-1.9-6.9-3.02-.32-.93-1.14-1.55-2.13-1.55-1.3 0-2.32 1-2.32 2.3 0 1.25 1.02 2.26 2.28 2.3.26 0 .5-.07.76-.16 2.7 1.35 5.03 2.36 7.86 3.38l-.87 6.6c-.23.15-.46.27-.73.38-.55.18-1.02.33-1.6.45-1.87.42-3.5.57-5.44.57-2.78.15-5.18-.27-7.72-1.4l-2.24-16.66c6.84 1.84 13.1 1.84 19.94 0zm-9.06-8.66c-3.63.17-6.7-.33-10.1-1.62 3.34-1.52 6.44-2.12 10.1-1.97 3.62-.15 6.75.45 10.08 1.97-3.4 1.3-6.5 1.8-10.08 1.62z" stroke="#fff" stroke-opacity="0" stroke-width="2" fill="#fff"/><use xlink:href="#v" transform="matrix(1,0,0,1,670,1129) translate(11.018518518518533 17.777777777777775)"/><use xlink:href="#w" transform="matrix(1,0,0,1,670,1129) translate(98.61111111111111 17.777777777777775)"/><path d="M500 1000h120v120H500v-120z" stroke="#fff" stroke-opacity="0" stroke-width="2" fill="#693cc5"/><path d="M560.1 1100c-.4 0-.74-.1-1.03-.37l-9.7-8c-.53-.45-.7-1.13-.48-1.77.23-.64.8-1.06 1.5-1.06h4.8v-4.8h3.2v6.4c0 .88-.72 1.6-1.6 1.6h-1.96l5.24 4.32 5.13-4.32h-2c-.88 0-1.6-.72-1.6-1.6v-6.4h3.2v4.8h4.8c.9.02 1.58.74 1.58 1.62 0 .48-.2.88-.56 1.2l-9.5 8c-.3.25-.64.38-1.02.38zM574.33 1040l-.35 3.2c2.76.2 5.07.68 7.73 1.62-2.86 1.23-10.8 2.38-21.7 2.38-11.22 0-19.2-1.28-21.77-2.38 2.3-.98 8.97-2.3 20.18-2.43v-3.2c-21.75.2-24 4-24 5.62v.3c.05.2.1.38.2.55l.3.55c.1.17.16.26.26.38.16.17.36.3.5.43l17.94 27.9v4.3c0 .68.4 1.24 1.02 1.5 1.84.67 3.53 1 5.48 1 1.9 0 3.53-.33 5.27-1.05.62-.25 1.03-.8 1.03-1.45v-4.3l17.82-27.9c.87-.47 1.33-1.28 1.38-2.2 0-1.76-1.33-3.63-11.27-4.82zm-10.85 33.62c-.2.25-.26.5-.26.85v3.62c-2.2.67-4.25.67-6.4 0v-3.63c0-.34-.1-.6-.25-.85l-15.93-24.85c6.76 1.24 12.55 1.7 19.36 1.62 6.8.07 12.6-.4 19.3-1.63z" stroke="#fff" stroke-opacity="0" stroke-width="2" fill="#fff"/><path d="M569.6 1044h-6.4c-.88 0-1.6-.72-1.6-1.6v-6.4c0-.88.72-1.6 1.6-1.6h6.4c.88 0 1.6.72 1.6 1.6v6.4c0 .88-.72 1.6-1.6 1.6zm-4.8-3.2h3.2v-3.2h-3.2zM566.4 1029.6H560c-.88 0-1.6-.72-1.6-1.6v-6.4c0-.88.72-1.6 1.6-1.6h6.4c.88 0 1.6.72 1.6 1.6v6.4c0 .88-.72 1.6-1.6 1.6zm-4.8-3.2h3.2v-3.2h-3.2zM553.6 1037.6h-6.4c-.88 0-1.6-.72-1.6-1.6v-6.4c0-.88.72-1.6 1.6-1.6h6.4c.88 0 1.6.72 1.6 1.6v6.4c0 .88-.72 1.6-1.6 1.6zm-4.8-3.2h3.2v-3.2h-3.2z" stroke="#fff" stroke-opacity="0" stroke-width="2" fill="#fff"/><use xlink:href="#x" transform="matrix(1,0,0,1,470,1129) translate(13.919753086419774 17.777777777777775)"/><use xlink:href="#y" transform="matrix(1,0,0,1,470,1129) translate(69.84567901234568 17.777777777777775)"/><use xlink:href="#l" transform="matrix(1,0,0,1,470,1129) translate(122.87037037037037 17.777777777777775)"/><use xlink:href="#z" transform="matrix(1,0,0,1,470,1129) translate(54.2283950617284 44.44444444444444)"/><path d="M500 680h120v120H500V680z" stroke="#fff" stroke-opacity="0" fill="#cc2264"/><path d="M588.77 736.02c0-4.1-2.4-7.54-6.24-8.95-2.88-.95-5.84-.47-8.24 1.36-1.13-2.4-2.4-4.3-4.25-6.12-5.68-5.84-13.92-7.44-21.36-4.2-6.97 3.26-11.2 9.72-11.37 17.4v.85c-4.08 1.23-7.04 4-8.56 8.02h3.52c1.5-2.88 4-4.67 7.1-5.33.73-.2 1.3-.85 1.2-1.6l-.07-2.03c.16-6.3 3.6-11.6 9.28-14.32 6.25-2.73 13.2-1.37 17.93 3.54 2.08 2.12 3.44 4.33 4.4 7.16.24.57.72.94 1.28 1.04.65.04 1.13-.14 1.53-.66 1.52-2.03 4.08-2.88 6.48-2.03 2.65.85 4.17 3.44 4.17 6.93-.08.85.48 1.65 1.36 1.84 2.88.47 9.76 2.54 9.76 10.7 0 9.76-9.6 10.75-9.85 10.8h-33.2v3.2H587c4.5-.38 12.97-3.82 12.97-14 0-8.1-5.6-12.3-11.2-13.58zm-65.6 27.58h-3.2v-3.2h3.2zm14.4 0h-11.2v-3.2h11.2zm12.8 0h-9.6v-3.2h9.6zm-14.4-6.4h-14.4v-3.22h14.4zm30.4 0h-19.2v-3.22h19.2zm-16-6.42h-9.6v-3.16h9.6zm-12.8 0h-12.8v-3.16h12.8zm6.4 6.4h-4.8V754h4.8z" stroke="#fff" stroke-opacity="0" fill="#fff"/><use xlink:href="#x" transform="matrix(1,0,0,1,470,809) translate(12.006172839506178 17.777777777777775)"/><use xlink:href="#A" transform="matrix(1,0,0,1,470,809) translate(67.93209876543209 17.777777777777775)"/><path d="M780 680h120v120H780V680z" stroke="#000" stroke-opacity="0" fill="#cd2264"/><path d="M815.06 765.98c4.08-2.6 5.47-7.88 3.3-12.27-2.43-4.56-8.17-6.44-12.77-4.02L800 740.1l9.22-16.03-2.8-1.6-9.63 16.73c-.34.54-.34 1.08 0 1.6l6.18 10.76c-1.74 1.88-2.6 4.03-2.6 6.54 0 5.2 4.16 9.5 9.38 9.5.87 0 1.56-.1 2.34-.28l5.04 8.78c.35.53.87.8 1.4.8h19.9v-3.13H819.5zm-5.3-1.52c-3.4 0-6.26-2.87-6.26-6.27 0-3.5 2.87-6.28 6.26-6.28 3.47 0 6.25 2.77 6.25 6.27 0 3.4-2.77 6.17-6.24 6.17zm73.43-25.26l-6.1-10.57c3.57-2.6 4.88-7.16 3.05-11.28-2-4.74-7.56-6.98-12.34-4.92l-4.94-8.6c-.35-.45-.87-.8-1.4-.8h-19.9v3.22h18.95l4.62 7.97c-2.8 2.6-3.83 6.27-2.7 9.85 1.57 5 6.87 7.8 11.9 6.18L880 740l-8 13.8 2.78 1.6 8.43-14.6c.34-.52.34-1.06 0-1.6zm-11.65-11.82c-3.48 0-6.26-2.86-6.26-6.27 0-3.48 2.77-6.26 6.25-6.26 3.4 0 6.17 2.78 6.17 6.27 0 3.42-2.78 6.28-6.17 6.28zm-9.65 38.5c-1.22 0-2.26.2-3.4.64l-6.77-11.47-.35.18 8.35-14.33c.35-.53.35-1.16 0-1.6l-9.13-16.13c-.35-.45-.87-.8-1.4-.8h-16.85l-6.17-10.57c2.17-1.8 3.3-4.3 3.3-7.17 0-5.2-4.25-9.4-9.47-9.4-5.2 0-9.37 4.2-9.37 9.5 0 5.2 4.25 9.4 9.47 9.4 1.22 0 2.26-.18 3.4-.63l5.72 9.76-9.12 15.94c-.35.54-.35 1.08 0 1.6l9.2 16.04c.36.45.8.72 1.4.72h18.5c.1.1.27.1.36 0l6.26 10.66c-2.18 1.88-3.22 4.3-3.22 7.16 0 5.2 4.17 9.4 9.4 9.4 5.2 0 9.46-4.2 9.46-9.5-.1-5.18-4.26-9.4-9.47-9.3zm-41.8-54.98c-3.48 0-6.26-2.86-6.17-6.27 0-3.5 2.87-6.26 6.26-6.26 3.46.1 6.24 2.86 6.24 6.26-.08 3.5-2.87 6.27-6.34 6.27zm28.16 43.53h-16.6L823.3 740l8.36-14.4h16.6l8.34 14.4zM862 781.56c-3.5 0-6.27-2.78-6.27-6.18 0-3.5 2.78-6.27 6.26-6.27 3.46 0 6.24 2.8 6.24 6.28 0 3.4-2.78 6.18-6.25 6.18z" stroke="#000" stroke-opacity="0" fill="#fff"/><use xlink:href="#B" transform="matrix(1,0,0,1,750,809) translate(49.29012345679013 17.777777777777775)"/><use xlink:href="#C" transform="matrix(1,0,0,1,750,809) translate(3.7037037037037237 44.44444444444444)"/><use xlink:href="#D" transform="matrix(1,0,0,1,750,809) translate(130.74074074074073 44.44444444444444)"/><path d="M1146.34 778.54l-12.4-3.46-11.72-13.33 13.08 1.08 11.04 15.7z" fill="#b8852e"/><path d="M1146.35 778.54l8.86-18.54-8.27-1.16-11.64 4 11.05 15.7z" fill="#d9a741"/><path d="M1117.68 769.76l-6.97-1.96-7.66-8.74 8.15 1.28 6.48 9.42z" fill="#b8852e"/><path d="M1117.67 769.76l5-10.44-4.66-.66-6.82 1.67 6.5 9.43z" fill="#d9a741"/><path d="M1100 759.32l7.14 1.47 34.86-30.3-34.86-33.87-7.14 3.6v59.1z" fill="#876929"/><path d="M1134.64 702.6v55.63l-27.52 2.56v-64.17l27.52 5.97z" fill="#d9a741"/><path d="M1115.9 762.68l12.23 2.46 33.7-39-33.7-40.1-12.22 6.16v70.48z" fill="#876929"/><path d="M1197.85 708.1v48.1l-69.72 8.94v-79.1l69.72 22.06z" fill="#d9a741"/><path d="M1185.22 790l-17.6-4.93-16.66-18.96 18.57 1.56 15.7 22.33z" fill="#b8852e"/><path d="M1185.22 790l12.62-26.34-11.8-1.68-16.5 5.7 15.68 22.3z" fill="#d9a741"/><path d="M1142 767.77l17.95 3.44 24.37-50.6-24.37-50.6-17.95 9.1v88.67z" fill="#876929"/><path d="M1159.96 771.2l60.03-11.93v-59.3L1159.95 670v101.2z" fill="#d9a741"/><use xlink:href="#B" transform="matrix(1,0,0,1,1100,790) translate(19.290123456790127 17.777777777777775)"/><use xlink:href="#E" transform="matrix(1,0,0,1,1100,790) translate(8.240740740740748 44.44444444444444)"/><use xlink:href="#F" transform="matrix(1,0,0,1,1100,790) translate(60.03086419753086 44.44444444444444)"/><path d="M1418.32 775h-76.64c-.88 0-1.68-.78-1.68-1.68v-37.3h3.44v35.57h73.12v-49.03h-46.48v-3.4h48.24c.88 0 1.68.78 1.68 1.67v52.48c0 .9-.8 1.68-1.68 1.68z" stroke="#fff" stroke-opacity="0" fill="#3b48cc"/><path d="M1379.97 754.33c-.36 0-.73-.14-1.03-.38l-20.57-17.1 2.2-2.6 19.4 16.18 37.24-30.9 2.2 2.62-38.27 31.8c-.36.24-.73.38-1.16.38z" stroke="#fff" stroke-opacity="0" fill="#3b48cc"/><path d="M1385.6 748.36l2.2-2.6 31.58 26.25-2.2 2.6-31.57-26.24z" stroke="#fff" stroke-opacity="0" stroke-width=".64" fill="#3b48cc"/><path d="M1340.63 772l31.56-26.24 2.2 2.6-31.58 26.24-2.2-2.6z" stroke="#fff" stroke-opacity="0" stroke-width=".77" fill="#3b48cc"/><path d="M1352.23 730.9c1.7-.02 3.1-.3 4.68-.9v2.94c-1.68.8-3.24 1.16-5.1 1.13-2.18.06-4.08-.4-5.97-1.5-1.74-1.05-2.95-2.42-3.76-4.25-.95-2.2-1.36-4.28-1.3-6.66-.06-3.17.55-5.9 1.96-8.72 1.23-2.53 2.87-4.36 5.22-5.88 2.23-1.42 4.5-2.1 7.17-2.06 2.2-.06 4.12.38 6.06 1.42 1.74.96 2.97 2.24 3.87 4.05.95 2.06 1.36 3.98 1.3 6.25.03 2.03-.28 3.78-1.02 5.67-.56 1.53-1.38 2.72-2.64 3.8-1.06.9-2.23 1.33-3.64 1.33-.74.03-1.4-.14-2.07-.46-.63-.32-1.1-.76-1.45-1.34-.56.6-1.12 1.02-1.86 1.37-.65.35-1.27.52-2 .55-1.3.06-2.42-.52-3.13-1.57-.85-1.46-1.18-2.88-1.08-4.54-.03-1.8.25-3.37.86-5.08.46-1.43 1.15-2.56 2.23-3.67.76-.82 1.7-1.23 2.8-1.3 1.28.04 2.36.65 3.05 1.7l.36-1.2h3.13l-1.4 10.4c-.03.3-.03.6 0 .92-.03.35.04.67.27.96.18.23.44.34.72.34.74-.08 1.36-.5 1.72-1.16.6-.93 1.02-1.8 1.25-2.9.32-1.3.48-2.45.45-3.8.18-2.4-.5-4.52-2.02-6.4-1.64-1.6-3.64-2.34-5.94-2.2-2.06 0-3.8.6-5.44 1.8-1.7 1.32-2.9 2.83-3.7 4.84-.95 2.27-1.36 4.33-1.3 6.8-.17 2.6.5 4.83 2.04 6.92 1.45 1.66 3.4 2.5 5.63 2.38zm1.02-6.33c.7-.03 1.28-.32 1.72-.85V723.14c-.03-.43-.03-.78 0-1.22l.92-6.77c-.47-.35-.96-.56-1.52-.58-.82 0-1.5.6-2.05 1.86-.64 1.57-.9 3.02-.82 4.74.1 2.26.62 3.4 1.75 3.4z" stroke="#fff" stroke-opacity="0" fill="#3b48cc"/><path d="M1340.9 720.06h77.07v52.9h-77.08v-52.9z" stroke="#fff" stroke-opacity="0" stroke-width=".87" fill="#fff" fill-opacity="0"/><path d="M1354.3 706.95c6.14 0 11.1 4.88 11.1 10.9 0 6-4.96 10.9-11.1 10.9-6.12 0-11.1-4.9-11.1-10.9 0-6.02 4.98-10.9 11.1-10.9z" stroke="#fff" stroke-opacity="0" stroke-width=".38" fill="#fff" fill-opacity="0"/><path d="M177 1131.92h15.8v11.73H177v-11.73zM237.2 1000H300v153.34h-62.8V1000z" fill="#29aae1"/><path d="M101 1025.84h166.2v106.25H101v-106.26z" fill="#29aae1"/><path d="M108.6 1032.3h151.6v95.03H108.6v-95.03z" fill="#fff" fill-opacity=".98"/><path d="M107.6 1144.5H259l-7.4 25.33H100l7.6-25.33z" fill="#29aae1"/><path d="M106.6 1143.65h155l13 26.35h-155l-13-26.35z" fill="#29aae1"/><path d="M159.2 1163.2h55.2v5.27h-55.2v-5.27zM128.8 1147.73h4.2v3.4h-4.2v-3.4zM136 1147.9h4.2v3.4H136v-3.4zM145.4 1154.02h4v3.4h-4v-3.4zM143.8 1147.56h4.2v3.4h-4.2v-3.4zM150.8 1147.73h4.2v3.4h-4.2v-3.4zM157.8 1147.56h4v3.4h-4v-3.4zM200.4 1148.07h4.2v3.4h-4.2v-3.4zM206.8 1148.07h4v3.4h-4v-3.4zM212.6 1148.07h4.2v3.4h-4.2v-3.4zM219.6 1148.07h4.2v3.4h-4.2v-3.4zM226.2 1148.07h4v3.4h-4v-3.4zM218.4 1153.68h4.2v3.4h-4.2v-3.4zM233.6 1148.07h4.2v3.4h-4.2v-3.4zM153 1153.85h4.2v3.4H153v-3.4zM161 1153.85h4v3.4h-4v-3.4zM212 1153.5h3.6v3.4H212v-3.4zM205 1153.5h4v3.4h-4v-3.4zM165.4 1147.73h4v3.4h-4v-3.4zM173 1147.9h4.2v3.4H173v-3.4zM180.2 1147.73h4.2v3.4h-4.2v-3.4zM188.2 1147.73h4v3.4h-4v-3.4zM194.6 1147.9h4.2v3.4h-4.2v-3.4zM168 1153.68h4v3.4h-4v-3.4zM175.6 1153.68h4.2v3.4h-4.2v-3.4zM183 1153.85h4v3.4h-4v-3.4zM190 1153.85h4.2v3.4H190v-3.4zM197.4 1153.5h4v3.4h-4v-3.4z" fill="#fff"/><path d="M100.2 1169.83l174.4-.5-12.4-25.68-154.4.17-7.6 26z" fill="none"/><path d="M281.6 1008h11.2c1.2 0 1.2 0 1.2 1.18 0 1.2 0 1.2-1.2 1.2h-11.2c-1.2 0-1.2 0-1.2-1.2s0-1.2 1.2-1.2zM281.6 1013.6H293c1 0 1 0 1 1.02s0 1.02-1 1.02h-11.4c-1.2 0-1.2 0-1.2-1.02s0-1.02 1.2-1.02zM237.4 1024.14h30.2v1.36h-30.2v-1.36zM267.6 1024.14h1.4v108.3h-1.4v-108.3z" fill="#fff"/><path d="M237.2 1132.26h31.6v1.53h-31.6v-1.54zM237.4 1140.93h24.2c1.2 0 1.2 0 1.2 1.2 0 1.35 0 1.35-1.2 1.35h-24.2c-1.2 0-1.2 0-1.2-1.36 0-1.2 0-1.2 1.2-1.2z" fill="#fff"/><path d="M262.6 1141.27l6.8 11.73-2 1.2-6.6-11.9 1.8-1.03zM176.2 1131.92h17v1.7h-17v-1.7zM176.8 1141.78H193v1.87h-16.2v-1.87z" fill="#fff"/><path d="M190.06 1025.34V816.38" stroke="#cc4e00" fill="none"/><path d="M190.56 1025.84h-1v-.5h1z" stroke="#cc4e00" stroke-width=".05" fill="#cc4e00"/><path d="M190.06 801.62l4.63 14.26h-9.28z" stroke="#cc4e00" fill="#cc4e00"/><path d="M190.06 679.5V416.38" stroke="#cc4e00" fill="none"/><path d="M190.56 680h-1v-.5h1z" stroke="#cc4e00" stroke-width=".05" fill="#cc4e00"/><path d="M190.06 401.62l4.63 14.26h-9.28z" stroke="#cc4e00" fill="#cc4e00"/><path d="M250.56 340h233.06" stroke="#cc4e00" fill="none"/><path d="M250.57 340.5h-.5v-1h.5z" stroke="#cc4e00" stroke-width=".05" fill="#cc4e00"/><path d="M498.38 340l-14.26 4.64v-9.28z" stroke="#cc4e00" fill="#cc4e00"/><path d="M620.5 340h223.12" stroke="#cc4e00" fill="none"/><path d="M620.5 340.5h-.5v-1h.5z" stroke="#cc4e00" stroke-width=".05" fill="#cc4e00"/><path d="M858.38 340l-14.26 4.64v-9.28z" stroke="#cc4e00" fill="#cc4e00"/><path d="M959.47 333.97h204.15" stroke="#cc4e00" fill="none"/><path d="M959.48 334.47h-.5v-1h.5z" stroke="#cc4e00" stroke-width=".05" fill="#cc4e00"/><path d="M1178.38 333.97l-14.26 4.64v-9.26z" stroke="#cc4e00" fill="#cc4e00"/><path d="M1300.5 340h263.12" stroke="#cc4e00" fill="none"/><path d="M1300.5 340.5h-.5v-1h.5z" stroke="#cc4e00" stroke-width=".05" fill="#cc4e00"/><path d="M1578.38 340l-14.26 4.64v-9.28z" stroke="#cc4e00" fill="#cc4e00"/><path d="M1640 400.5v583.12" stroke="#cc4e00" fill="none"/><path d="M1640.5 400.5h-1v-.5h1z" stroke="#cc4e00" stroke-width=".05" fill="#cc4e00"/><path d="M1640 998.38l-4.64-14.26h9.28z" stroke="#cc4e00" fill="#cc4e00"/><path d="M1420.5 1060h143.12" stroke="#cc4e00" fill="none"/><path d="M1420.5 1060.5h-.5v-1h.5z" stroke="#cc4e00" stroke-width=".05" fill="#cc4e00"/><path d="M1578.38 1060l-14.26 4.64v-9.28z" stroke="#cc4e00" fill="#cc4e00"/><path d="M1299.5 1060h-183.12" stroke="#cc4e00" fill="none"/><path d="M1300 1060.5h-.5v-1h.5z" stroke="#cc4e00" stroke-width=".05" fill="#cc4e00"/><path d="M1101.62 1060l14.26-4.64v9.28z" stroke="#cc4e00" fill="#cc4e00"/><path d="M820.5 1060h143.12" stroke="#cc4e00" fill="none"/><path d="M820.5 1060.5h-.5v-1h.5z" stroke="#cc4e00" stroke-width=".05" fill="#cc4e00"/><path d="M978.38 1060l-14.26 4.64v-9.28z" stroke="#cc4e00" fill="#cc4e00"/><path d="M699.5 1060h-63.12" stroke="#cc4e00" fill="none"/><path d="M700 1060.5h-.5v-1h.5z" stroke="#cc4e00" stroke-width=".05" fill="#cc4e00"/><path d="M621.62 1060l14.26-4.64v9.28z" stroke="#cc4e00" fill="#cc4e00"/><path d="M250.56 740h233.06" stroke="#cc4e00" fill="none"/><path d="M250.57 740.5h-.5v-1h.5z" stroke="#cc4e00" stroke-width=".05" fill="#cc4e00"/><path d="M498.38 740l-14.26 4.64v-9.28z" stroke="#cc4e00" fill="#cc4e00"/><path d="M620.5 740h143.12" stroke="#cc4e00" fill="none"/><path d="M620.5 740.5h-.5v-1h.5z" stroke="#cc4e00" stroke-width=".05" fill="#cc4e00"/><path d="M778.38 740l-14.26 4.64v-9.28z" stroke="#cc4e00" fill="#cc4e00"/><path d="M900.5 740h183.12" stroke="#cc4e00" fill="none"/><path d="M900.5 740.5h-.5v-1h.5z" stroke="#cc4e00" stroke-width=".05" fill="#cc4e00"/><path d="M1098.38 740l-14.26 4.64v-9.28z" stroke="#cc4e00" fill="#cc4e00"/><path d="M1220.5 734.44h104" stroke="#cc4e00" fill="none"/><path d="M1220.5 734.94h-.5v-1h.5z" stroke="#cc4e00" stroke-width=".05" fill="#cc4e00"/><path d="M1339.27 734.44l-14.26 4.64v-9.27z" stroke="#cc4e00" fill="#cc4e00"/><defs><path fill="#cc4e00" d="M185-189c-5-48-123-54-124 2 14 75 158 14 163 119 3 78-121 87-175 55-17-10-28-26-33-46l33-7c5 56 141 63 141-1 0-78-155-14-162-118-5-82 145-84 179-34 5 7 8 16 11 25" id="G"/><path fill="#cc4e00" d="M126-127c33 6 58 20 58 59 0 88-139 92-164 29-3-8-5-16-6-25l32-3c6 27 21 44 54 44 32 0 52-15 52-46 0-38-36-46-79-43v-28c39 1 72-4 72-42 0-27-17-43-46-43-28 0-47 15-49 41l-32-3c6-42 35-63 81-64 48-1 79 21 79 65 0 36-21 52-52 59" id="H"/><g id="a"><use transform="matrix(0.06172839506172839,0,0,0.06172839506172839,0,0)" xlink:href="#G"/><use transform="matrix(0.06172839506172839,0,0,0.06172839506172839,14.814814814814813,0)" xlink:href="#H"/></g><path fill="#cc4e00" d="M59-47c-2 24 18 29 38 22v24C64 9 27 4 27-40v-127H5v-23h24l9-43h21v43h35v23H59v120" id="I"/><path fill="#cc4e00" d="M141-36C126-15 110 5 73 4 37 3 15-17 15-53c-1-64 63-63 125-63 3-35-9-54-41-54-24 1-41 7-42 31l-33-3c5-37 33-52 76-52 45 0 72 20 72 64v82c-1 20 7 32 28 27v20c-31 9-61-2-59-35zM48-53c0 20 12 33 32 33 41-3 63-29 60-74-43 2-92-5-92 41" id="J"/><path fill="#cc4e00" d="M24-231v-30h32v30H24zM24 0v-190h32V0H24" id="K"/><path fill="#cc4e00" d="M96-169c-40 0-48 33-48 73s9 75 48 75c24 0 41-14 43-38l32 2c-6 37-31 61-74 61-59 0-76-41-82-99-10-93 101-131 147-64 4 7 5 14 7 22l-32 3c-4-21-16-35-41-35" id="L"/><g id="b"><use transform="matrix(0.06172839506172839,0,0,0.06172839506172839,0,0)" xlink:href="#G"/><use transform="matrix(0.06172839506172839,0,0,0.06172839506172839,14.814814814814813,0)" xlink:href="#I"/><use transform="matrix(0.06172839506172839,0,0,0.06172839506172839,20.98765432098765,0)" xlink:href="#J"/><use transform="matrix(0.06172839506172839,0,0,0.06172839506172839,33.33333333333333,0)" xlink:href="#I"/><use transform="matrix(0.06172839506172839,0,0,0.06172839506172839,39.50617283950617,0)" xlink:href="#K"/><use transform="matrix(0.06172839506172839,0,0,0.06172839506172839,44.382716049382715,0)" xlink:href="#L"/></g><path fill="#cc4e00" d="M266 0h-40l-56-210L115 0H75L2-248h35L96-30l15-64 43-154h32l59 218 59-218h35" id="M"/><path fill="#cc4e00" d="M100-194c63 0 86 42 84 106H49c0 40 14 67 53 68 26 1 43-12 49-29l28 8c-11 28-37 45-77 45C44 4 14-33 15-96c1-61 26-98 85-98zm52 81c6-60-76-77-97-28-3 7-6 17-6 28h103" id="N"/><path fill="#cc4e00" d="M115-194c53 0 69 39 70 98 0 66-23 100-70 100C84 3 66-7 56-30L54 0H23l1-261h32v101c10-23 28-34 59-34zm-8 174c40 0 45-34 45-75 0-40-5-75-45-74-42 0-51 32-51 76 0 43 10 73 51 73" id="O"/><path fill="#cc4e00" d="M135-143c-3-34-86-38-87 0 15 53 115 12 119 90S17 21 10-45l28-5c4 36 97 45 98 0-10-56-113-15-118-90-4-57 82-63 122-42 12 7 21 19 24 35" id="P"/><g id="c"><use transform="matrix(0.06172839506172839,0,0,0.06172839506172839,0,0)" xlink:href="#M"/><use transform="matrix(0.06172839506172839,0,0,0.06172839506172839,20.493827160493826,0)" xlink:href="#N"/><use transform="matrix(0.06172839506172839,0,0,0.06172839506172839,32.839506172839506,0)" xlink:href="#O"/><use transform="matrix(0.06172839506172839,0,0,0.06172839506172839,45.18518518518518,0)" xlink:href="#P"/><use transform="matrix(0.06172839506172839,0,0,0.06172839506172839,56.29629629629629,0)" xlink:href="#K"/><use transform="matrix(0.06172839506172839,0,0,0.06172839506172839,61.172839506172835,0)" xlink:href="#I"/><use transform="matrix(0.06172839506172839,0,0,0.06172839506172839,67.34567901234567,0)" xlink:href="#N"/></g><path fill="#cc4e00" d="M205 0l-28-72H64L36 0H1l101-248h38L239 0h-34zm-38-99l-47-123c-12 45-31 82-46 123h93" id="Q"/><path fill="#cc4e00" d="M30-248c87 1 191-15 191 75 0 78-77 80-158 76V0H30v-248zm33 125c57 0 124 11 124-50 0-59-68-47-124-48v98" id="R"/><path fill="#cc4e00" d="M33 0v-248h34V0H33" id="S"/><g id="d"><use transform="matrix(0.061728395061728385,0,0,0.061728395061728385,0,0)" xlink:href="#Q"/><use transform="matrix(0.061728395061728385,0,0,0.061728395061728385,14.814814814814813,0)" xlink:href="#R"/><use transform="matrix(0.061728395061728385,0,0,0.061728395061728385,29.629629629629626,0)" xlink:href="#S"/></g><path fill="#cc4e00" d="M143 4C61 4 22-44 18-125c-5-107 100-154 193-111 17 8 29 25 37 43l-32 9c-13-25-37-40-76-40-61 0-88 39-88 99 0 61 29 100 91 101 35 0 62-11 79-27v-45h-74v-28h105v86C228-13 192 4 143 4" id="T"/><path fill="#cc4e00" d="M206 0h-36l-40-164L89 0H53L-1-190h32L70-26l43-164h34l41 164 42-164h31" id="U"/><path fill="#cc4e00" d="M179-190L93 31C79 59 56 82 12 73V49c39 6 53-20 64-50L1-190h34L92-34l54-156h33" id="V"/><g id="e"><use transform="matrix(0.061728395061728385,0,0,0.061728395061728385,0,0)" xlink:href="#T"/><use transform="matrix(0.061728395061728385,0,0,0.061728395061728385,17.28395061728395,0)" xlink:href="#J"/><use transform="matrix(0.061728395061728385,0,0,0.061728395061728385,29.629629629629626,0)" xlink:href="#I"/><use transform="matrix(0.061728395061728385,0,0,0.061728395061728385,35.80246913580247,0)" xlink:href="#N"/><use transform="matrix(0.061728395061728385,0,0,0.061728395061728385,48.148148148148145,0)" xlink:href="#U"/><use transform="matrix(0.061728395061728385,0,0,0.061728395061728385,64.1358024691358,0)" xlink:href="#J"/><use transform="matrix(0.061728395061728385,0,0,0.061728395061728385,76.48148148148147,0)" xlink:href="#V"/></g><path fill="#cc4e00" d="M30 0v-248h33v221h125V0H30" id="W"/><path fill="#cc4e00" d="M210-169c-67 3-38 105-44 169h-31v-121c0-29-5-50-35-48C34-165 62-65 56 0H25l-1-190h30c1 10-1 24 2 32 10-44 99-50 107 0 11-21 27-35 58-36 85-2 47 119 55 194h-31v-121c0-29-5-49-35-48" id="X"/><path fill="#cc4e00" d="M85-194c31 0 48 13 60 33l-1-100h32l1 261h-30c-2-10 0-23-3-31C134-8 116 4 85 4 32 4 16-35 15-94c0-66 23-100 70-100zm9 24c-40 0-46 34-46 75 0 40 6 74 45 74 42 0 51-32 51-76 0-42-9-74-50-73" id="Y"/><g id="f"><use transform="matrix(0.061728395061728385,0,0,0.061728395061728385,0,0)" xlink:href="#W"/><use transform="matrix(0.061728395061728385,0,0,0.061728395061728385,12.345679012345677,0)" xlink:href="#J"/><use transform="matrix(0.061728395061728385,0,0,0.061728395061728385,24.691358024691354,0)" xlink:href="#X"/><use transform="matrix(0.061728395061728385,0,0,0.061728395061728385,43.14814814814814,0)" xlink:href="#O"/><use transform="matrix(0.061728395061728385,0,0,0.061728395061728385,55.493827160493815,0)" xlink:href="#Y"/><use transform="matrix(0.061728395061728385,0,0,0.061728395061728385,67.83950617283949,0)" xlink:href="#J"/></g><path fill="#cc4e00" d="M117-194c89-4 53 116 60 194h-32v-121c0-31-8-49-39-48C34-167 62-67 57 0H25l-1-190h30c1 10-1 24 2 32 11-22 29-35 61-36" id="Z"/><g id="g"><use transform="matrix(0.061728395061728385,0,0,0.061728395061728385,0,0)" xlink:href="#G"/><use transform="matrix(0.061728395061728385,0,0,0.061728395061728385,14.814814814814813,0)" xlink:href="#N"/><use transform="matrix(0.061728395061728385,0,0,0.061728395061728385,27.16049382716049,0)" xlink:href="#Z"/><use transform="matrix(0.061728395061728385,0,0,0.061728395061728385,39.50617283950616,0)" xlink:href="#Y"/></g><g id="h"><use transform="matrix(0.061728395061728385,0,0,0.061728395061728385,0,0)" xlink:href="#Y"/><use transform="matrix(0.061728395061728385,0,0,0.061728395061728385,12.345679012345677,0)" xlink:href="#J"/><use transform="matrix(0.061728395061728385,0,0,0.061728395061728385,24.691358024691354,0)" xlink:href="#I"/><use transform="matrix(0.061728395061728385,0,0,0.061728395061728385,30.864197530864192,0)" xlink:href="#J"/></g><path fill="#cc4e00" d="M100-194c62-1 85 37 85 99 1 63-27 99-86 99S16-35 15-95c0-66 28-99 85-99zM99-20c44 1 53-31 53-75 0-43-8-75-51-75s-53 32-53 75 10 74 51 75" id="aa"/><g id="i"><use transform="matrix(0.061728395061728385,0,0,0.061728395061728385,0,0)" xlink:href="#I"/><use transform="matrix(0.061728395061728385,0,0,0.061728395061728385,6.1728395061728385,0)" xlink:href="#aa"/></g><path fill="#cc4e00" d="M140-251c81 0 123 46 123 126C263-53 228-8 163 1c7 30 30 48 69 40v23c-55 16-95-15-103-61C56-3 17-48 17-125c0-80 42-126 123-126zm0 227c63 0 89-41 89-101s-29-99-89-99c-61 0-89 39-89 99S79-25 140-24" id="ab"/><path fill="#cc4e00" d="M84 4C-5 8 30-112 23-190h32v120c0 31 7 50 39 49 72-2 45-101 50-169h31l1 190h-30c-1-10 1-25-2-33-11 22-28 36-60 37" id="ac"/><g id="j"><use transform="matrix(0.061728395061728385,0,0,0.061728395061728385,0,0)" xlink:href="#ab"/><use transform="matrix(0.061728395061728385,0,0,0.061728395061728385,17.28395061728395,0)" xlink:href="#ac"/><use transform="matrix(0.061728395061728385,0,0,0.061728395061728385,29.629629629629626,0)" xlink:href="#N"/><use transform="matrix(0.061728395061728385,0,0,0.061728395061728385,41.9753086419753,0)" xlink:href="#ac"/><use transform="matrix(0.061728395061728385,0,0,0.061728395061728385,54.32098765432098,0)" xlink:href="#N"/></g><g id="k"><use transform="matrix(0.061728395061728385,0,0,0.061728395061728385,0,0)" xlink:href="#G"/><use transform="matrix(0.061728395061728385,0,0,0.061728395061728385,14.814814814814813,0)" xlink:href="#ab"/><use transform="matrix(0.061728395061728385,0,0,0.061728395061728385,32.09876543209876,0)" xlink:href="#G"/></g><g id="l"><use transform="matrix(0.061728395061728385,0,0,0.061728395061728385,0,0)" xlink:href="#Y"/><use transform="matrix(0.061728395061728385,0,0,0.061728395061728385,12.345679012345677,0)" xlink:href="#J"/><use transform="matrix(0.061728395061728385,0,0,0.061728395061728385,24.691358024691354,0)" xlink:href="#I"/><use transform="matrix(0.061728395061728385,0,0,0.061728395061728385,30.864197530864192,0)" xlink:href="#J"/></g><path fill="#cc4e00" d="M106-169C34-169 62-67 57 0H25v-261h32l-1 103c12-21 28-36 61-36 89 0 53 116 60 194h-32v-121c2-32-8-49-39-48" id="ad"/><path fill="#cc4e00" d="M24 0v-261h32V0H24" id="ae"/><path fill="#cc4e00" d="M114-163C36-179 61-72 57 0H25l-1-190h30c1 12-1 29 2 39 6-27 23-49 58-41v29" id="af"/><g id="m"><use transform="matrix(0.061728395061728385,0,0,0.061728395061728385,0,0)" xlink:href="#ad"/><use transform="matrix(0.061728395061728385,0,0,0.061728395061728385,12.345679012345677,0)" xlink:href="#J"/><use transform="matrix(0.061728395061728385,0,0,0.061728395061728385,24.691358024691354,0)" xlink:href="#Z"/><use transform="matrix(0.061728395061728385,0,0,0.061728395061728385,37.03703703703703,0)" xlink:href="#Y"/><use transform="matrix(0.061728395061728385,0,0,0.061728395061728385,49.38271604938271,0)" xlink:href="#ae"/><use transform="matrix(0.061728395061728385,0,0,0.061728395061728385,54.25925925925925,0)" xlink:href="#N"/><use transform="matrix(0.061728395061728385,0,0,0.061728395061728385,66.60493827160494,0)" xlink:href="#af"/></g><path fill="#cc4e00" d="M30-248c118-7 216 8 213 122C240-48 200 0 122 0H30v-248zM63-27c89 8 146-16 146-99s-60-101-146-95v194" id="ag"/><path fill="#cc4e00" d="M160-131c35 5 61 23 61 61C221 17 115-2 30 0v-248c76 3 177-17 177 60 0 33-19 50-47 57zm-97-11c50-1 110 9 110-42 0-47-63-36-110-37v79zm0 115c55-2 124 14 124-45 0-56-70-42-124-44v89" id="ah"/><g id="n"><use transform="matrix(0.061728395061728385,0,0,0.061728395061728385,0,0)" xlink:href="#ag"/><use transform="matrix(0.061728395061728385,0,0,0.061728395061728385,15.987654320987652,0)" xlink:href="#V"/><use transform="matrix(0.061728395061728385,0,0,0.061728395061728385,27.09876543209876,0)" xlink:href="#Z"/><use transform="matrix(0.061728395061728385,0,0,0.061728395061728385,39.444444444444436,0)" xlink:href="#J"/><use transform="matrix(0.061728395061728385,0,0,0.061728395061728385,51.79012345679011,0)" xlink:href="#X"/><use transform="matrix(0.061728395061728385,0,0,0.061728395061728385,70.2469135802469,0)" xlink:href="#aa"/><use transform="matrix(0.061728395061728385,0,0,0.061728395061728385,82.59259259259258,0)" xlink:href="#ag"/><use transform="matrix(0.061728395061728385,0,0,0.061728395061728385,98.58024691358023,0)" xlink:href="#ah"/></g><path fill="#cc4e00" d="M127-220V0H93v-220H8v-28h204v28h-85" id="ai"/><g id="o"><use transform="matrix(0.061728395061728385,0,0,0.061728395061728385,0,0)" xlink:href="#ai"/><use transform="matrix(0.061728395061728385,0,0,0.061728395061728385,11.04938271604938,0)" xlink:href="#J"/><use transform="matrix(0.061728395061728385,0,0,0.061728395061728385,23.395061728395056,0)" xlink:href="#O"/><use transform="matrix(0.061728395061728385,0,0,0.061728395061728385,35.74074074074073,0)" xlink:href="#ae"/><use transform="matrix(0.061728395061728385,0,0,0.061728395061728385,40.61728395061728,0)" xlink:href="#N"/></g><g id="p"><use transform="matrix(0.061728395061728385,0,0,0.061728395061728385,0,0)" xlink:href="#ag"/><use transform="matrix(0.061728395061728385,0,0,0.061728395061728385,15.987654320987652,0)" xlink:href="#V"/><use transform="matrix(0.061728395061728385,0,0,0.061728395061728385,27.09876543209876,0)" xlink:href="#Z"/><use transform="matrix(0.061728395061728385,0,0,0.061728395061728385,39.444444444444436,0)" xlink:href="#J"/><use transform="matrix(0.061728395061728385,0,0,0.061728395061728385,51.79012345679011,0)" xlink:href="#X"/><use transform="matrix(0.061728395061728385,0,0,0.061728395061728385,70.2469135802469,0)" xlink:href="#aa"/><use transform="matrix(0.061728395061728385,0,0,0.061728395061728385,82.59259259259258,0)" xlink:href="#ag"/><use transform="matrix(0.061728395061728385,0,0,0.061728395061728385,98.58024691358023,0)" xlink:href="#ah"/></g><g id="q"><use transform="matrix(0.061728395061728385,0,0,0.061728395061728385,0,0)" xlink:href="#G"/><use transform="matrix(0.061728395061728385,0,0,0.061728395061728385,14.814814814814813,0)" xlink:href="#I"/><use transform="matrix(0.061728395061728385,0,0,0.061728395061728385,20.98765432098765,0)" xlink:href="#af"/><use transform="matrix(0.061728395061728385,0,0,0.061728395061728385,28.33333333333333,0)" xlink:href="#N"/><use transform="matrix(0.061728395061728385,0,0,0.061728395061728385,40.679012345679006,0)" xlink:href="#J"/><use transform="matrix(0.061728395061728385,0,0,0.061728395061728385,53.02469135802468,0)" xlink:href="#X"/></g><path fill="#cc4e00" d="M143 0L79-87 56-68V0H24v-261h32v163l83-92h37l-77 82L181 0h-38" id="aj"/><g id="r"><use transform="matrix(0.061728395061728385,0,0,0.061728395061728385,0,0)" xlink:href="#ae"/><use transform="matrix(0.061728395061728385,0,0,0.061728395061728385,4.876543209876543,0)" xlink:href="#J"/><use transform="matrix(0.061728395061728385,0,0,0.061728395061728385,17.22222222222222,0)" xlink:href="#aj"/><use transform="matrix(0.061728395061728385,0,0,0.061728395061728385,28.33333333333333,0)" xlink:href="#N"/></g><path fill="#cc4e00" d="M177-190C167-65 218 103 67 71c-23-6-38-20-44-43l32-5c15 47 100 32 89-28v-30C133-14 115 1 83 1 29 1 15-40 15-95c0-56 16-97 71-98 29-1 48 16 59 35 1-10 0-23 2-32h30zM94-22c36 0 50-32 50-73 0-42-14-75-50-75-39 0-46 34-46 75s6 73 46 73" id="ak"/><g id="s"><use transform="matrix(0.061728395061728385,0,0,0.061728395061728385,0,0)" xlink:href="#ae"/><use transform="matrix(0.061728395061728385,0,0,0.061728395061728385,4.876543209876543,0)" xlink:href="#aa"/><use transform="matrix(0.061728395061728385,0,0,0.061728395061728385,17.22222222222222,0)" xlink:href="#J"/><use transform="matrix(0.061728395061728385,0,0,0.061728395061728385,29.5679012345679,0)" xlink:href="#Y"/><use transform="matrix(0.061728395061728385,0,0,0.061728395061728385,41.913580246913575,0)" xlink:href="#K"/><use transform="matrix(0.061728395061728385,0,0,0.061728395061728385,46.79012345679012,0)" xlink:href="#Z"/><use transform="matrix(0.061728395061728385,0,0,0.061728395061728385,59.1358024691358,0)" xlink:href="#ak"/></g><g id="t"><use transform="matrix(0.06172839506172839,0,0,0.06172839506172839,0,0)" xlink:href="#ag"/><use transform="matrix(0.06172839506172839,0,0,0.06172839506172839,15.987654320987653,0)" xlink:href="#J"/><use transform="matrix(0.06172839506172839,0,0,0.06172839506172839,28.333333333333332,0)" xlink:href="#I"/><use transform="matrix(0.06172839506172839,0,0,0.06172839506172839,34.50617283950617,0)" xlink:href="#J"/></g><g id="u"><use transform="matrix(0.06172839506172839,0,0,0.06172839506172839,0,0)" xlink:href="#W"/><use transform="matrix(0.06172839506172839,0,0,0.06172839506172839,12.345679012345679,0)" xlink:href="#J"/><use transform="matrix(0.06172839506172839,0,0,0.06172839506172839,24.691358024691358,0)" xlink:href="#aj"/><use transform="matrix(0.06172839506172839,0,0,0.06172839506172839,35.80246913580247,0)" xlink:href="#N"/></g><path fill="#cc4e00" d="M9 0v-24l116-142H16v-24h144v24L44-24h123V0H9" id="al"/><g id="v"><use transform="matrix(0.061728395061728385,0,0,0.061728395061728385,0,0)" xlink:href="#Q"/><use transform="matrix(0.061728395061728385,0,0,0.061728395061728385,14.814814814814813,0)" xlink:href="#X"/><use transform="matrix(0.061728395061728385,0,0,0.061728395061728385,33.2716049382716,0)" xlink:href="#J"/><use transform="matrix(0.061728395061728385,0,0,0.061728395061728385,45.61728395061728,0)" xlink:href="#al"/><use transform="matrix(0.061728395061728385,0,0,0.061728395061728385,56.728395061728385,0)" xlink:href="#aa"/><use transform="matrix(0.061728395061728385,0,0,0.061728395061728385,69.07407407407406,0)" xlink:href="#Z"/></g><g id="w"><use transform="matrix(0.061728395061728385,0,0,0.061728395061728385,0,0)" xlink:href="#Q"/><use transform="matrix(0.061728395061728385,0,0,0.061728395061728385,14.814814814814813,0)" xlink:href="#I"/><use transform="matrix(0.061728395061728385,0,0,0.061728395061728385,20.98765432098765,0)" xlink:href="#ad"/><use transform="matrix(0.061728395061728385,0,0,0.061728395061728385,33.33333333333333,0)" xlink:href="#N"/><use transform="matrix(0.061728395061728385,0,0,0.061728395061728385,45.679012345679006,0)" xlink:href="#Z"/><use transform="matrix(0.061728395061728385,0,0,0.061728395061728385,58.02469135802468,0)" xlink:href="#J"/></g><g id="x"><use transform="matrix(0.061728395061728385,0,0,0.061728395061728385,0,0)" xlink:href="#Q"/><use transform="matrix(0.061728395061728385,0,0,0.061728395061728385,14.012345679012345,0)" xlink:href="#M"/><use transform="matrix(0.061728395061728385,0,0,0.061728395061728385,34.938271604938265,0)" xlink:href="#G"/></g><g id="y"><use transform="matrix(0.061728395061728385,0,0,0.061728395061728385,0,0)" xlink:href="#T"/><use transform="matrix(0.061728395061728385,0,0,0.061728395061728385,17.28395061728395,0)" xlink:href="#ae"/><use transform="matrix(0.061728395061728385,0,0,0.061728395061728385,22.160493827160494,0)" xlink:href="#ac"/><use transform="matrix(0.061728395061728385,0,0,0.061728395061728385,34.50617283950617,0)" xlink:href="#N"/></g><g id="z"><use transform="matrix(0.061728395061728385,0,0,0.061728395061728385,0,0)" xlink:href="#L"/><use transform="matrix(0.061728395061728385,0,0,0.061728395061728385,11.111111111111109,0)" xlink:href="#J"/><use transform="matrix(0.061728395061728385,0,0,0.061728395061728385,23.456790123456784,0)" xlink:href="#I"/><use transform="matrix(0.061728395061728385,0,0,0.061728395061728385,29.629629629629623,0)" xlink:href="#J"/><use transform="matrix(0.061728395061728385,0,0,0.061728395061728385,41.9753086419753,0)" xlink:href="#ae"/><use transform="matrix(0.061728395061728385,0,0,0.061728395061728385,46.85185185185185,0)" xlink:href="#aa"/><use transform="matrix(0.061728395061728385,0,0,0.061728395061728385,59.197530864197525,0)" xlink:href="#ak"/></g><path fill="#cc4e00" d="M212-179c-10-28-35-45-73-45-59 0-87 40-87 99 0 60 29 101 89 101 43 0 62-24 78-52l27 14C228-24 195 4 139 4 59 4 22-46 18-125c-6-104 99-153 187-111 19 9 31 26 39 46" id="am"/><g id="A"><use transform="matrix(0.061728395061728385,0,0,0.061728395061728385,0,0)" xlink:href="#am"/><use transform="matrix(0.061728395061728385,0,0,0.061728395061728385,15.987654320987652,0)" xlink:href="#ae"/><use transform="matrix(0.061728395061728385,0,0,0.061728395061728385,20.864197530864196,0)" xlink:href="#aa"/><use transform="matrix(0.061728395061728385,0,0,0.061728395061728385,33.20987654320987,0)" xlink:href="#ac"/><use transform="matrix(0.061728395061728385,0,0,0.061728395061728385,45.55555555555555,0)" xlink:href="#Y"/><use transform="matrix(0.061728395061728385,0,0,0.061728395061728385,57.90123456790123,0)" xlink:href="#ai"/><use transform="matrix(0.061728395061728385,0,0,0.061728395061728385,70.61728395061728,0)" xlink:href="#af"/><use transform="matrix(0.061728395061728385,0,0,0.061728395061728385,77.96296296296296,0)" xlink:href="#J"/><use transform="matrix(0.061728395061728385,0,0,0.061728395061728385,90.30864197530863,0)" xlink:href="#K"/><use transform="matrix(0.061728395061728385,0,0,0.061728395061728385,95.18518518518518,0)" xlink:href="#ae"/></g><g id="B"><use transform="matrix(0.061728395061728385,0,0,0.061728395061728385,0,0)" xlink:href="#Q"/><use transform="matrix(0.061728395061728385,0,0,0.061728395061728385,14.814814814814813,0)" xlink:href="#X"/><use transform="matrix(0.061728395061728385,0,0,0.061728395061728385,33.2716049382716,0)" xlink:href="#J"/><use transform="matrix(0.061728395061728385,0,0,0.061728395061728385,45.61728395061728,0)" xlink:href="#al"/><use transform="matrix(0.061728395061728385,0,0,0.061728395061728385,56.728395061728385,0)" xlink:href="#aa"/><use transform="matrix(0.061728395061728385,0,0,0.061728395061728385,69.07407407407406,0)" xlink:href="#Z"/></g><path fill="#cc4e00" d="M30 0v-248h187v28H63v79h144v27H63v87h162V0H30" id="an"/><path fill="#cc4e00" d="M108 0H70L1-190h34L89-25l56-165h34" id="ao"/><g id="C"><use transform="matrix(0.061728395061728385,0,0,0.061728395061728385,0,0)" xlink:href="#an"/><use transform="matrix(0.061728395061728385,0,0,0.061728395061728385,14.814814814814813,0)" xlink:href="#ao"/><use transform="matrix(0.061728395061728385,0,0,0.061728395061728385,25.925925925925924,0)" xlink:href="#N"/><use transform="matrix(0.061728395061728385,0,0,0.061728395061728385,38.2716049382716,0)" xlink:href="#Z"/><use transform="matrix(0.061728395061728385,0,0,0.061728395061728385,50.61728395061728,0)" xlink:href="#I"/><use transform="matrix(0.061728395061728385,0,0,0.061728395061728385,56.79012345679011,0)" xlink:href="#ah"/><use transform="matrix(0.061728395061728385,0,0,0.061728395061728385,71.60493827160492,0)" xlink:href="#af"/><use transform="matrix(0.061728395061728385,0,0,0.061728395061728385,78.9506172839506,0)" xlink:href="#K"/><use transform="matrix(0.061728395061728385,0,0,0.061728395061728385,83.82716049382715,0)" xlink:href="#Y"/><use transform="matrix(0.061728395061728385,0,0,0.061728395061728385,96.17283950617283,0)" xlink:href="#ak"/><use transform="matrix(0.061728395061728385,0,0,0.061728395061728385,108.5185185185185,0)" xlink:href="#N"/></g><path fill="#cc4e00" d="M233-177c-1 41-23 64-60 70L243 0h-38l-65-103H63V0H30v-248c88 3 205-21 203 71zM63-129c60-2 137 13 137-47 0-61-80-42-137-45v92" id="ap"/><g id="D"><use transform="matrix(0.061728395061728385,0,0,0.061728395061728385,0,0)" xlink:href="#ap"/><use transform="matrix(0.061728395061728385,0,0,0.061728395061728385,15.987654320987652,0)" xlink:href="#ac"/><use transform="matrix(0.061728395061728385,0,0,0.061728395061728385,28.33333333333333,0)" xlink:href="#ae"/><use transform="matrix(0.061728395061728385,0,0,0.061728395061728385,33.20987654320987,0)" xlink:href="#N"/></g><path fill="#cc4e00" d="M190 0L58-211 59 0H30v-248h39L202-35l-2-213h31V0h-41" id="aq"/><g id="E"><use transform="matrix(0.061728395061728385,0,0,0.061728395061728385,0,0)" xlink:href="#G"/><use transform="matrix(0.061728395061728385,0,0,0.061728395061728385,14.814814814814813,0)" xlink:href="#aq"/><use transform="matrix(0.061728395061728385,0,0,0.061728395061728385,30.802469135802465,0)" xlink:href="#G"/></g><path fill="#cc4e00" d="M115-194c55 1 70 41 70 98S169 2 115 4C84 4 66-9 55-30l1 105H24l-1-265h31l2 30c10-21 28-34 59-34zm-8 174c40 0 45-34 45-75s-6-73-45-74c-42 0-51 32-51 76 0 43 10 73 51 73" id="ar"/><g id="F"><use transform="matrix(0.061728395061728385,0,0,0.061728395061728385,0,0)" xlink:href="#ai"/><use transform="matrix(0.061728395061728385,0,0,0.061728395061728385,11.04938271604938,0)" xlink:href="#aa"/><use transform="matrix(0.061728395061728385,0,0,0.061728395061728385,23.395061728395056,0)" xlink:href="#ar"/><use transform="matrix(0.061728395061728385,0,0,0.061728395061728385,35.74074074074073,0)" xlink:href="#K"/><use transform="matrix(0.061728395061728385,0,0,0.061728395061728385,40.61728395061728,0)" xlink:href="#L"/></g></defs></g></svg>